<svg width="24" height="24" viewBox="0 0 24 24" fill="none" xmlns="http://www.w3.org/2000/svg">
<g clip-path="url(#clip0_13_65)">
<path d="M6.06999 9.80005C5.86999 10 5.86999 10.31 6.06999 10.51C7.13999 11.58 7.22999 13.26 6.34999 14.43C6.19999 14.63 6.22999 14.9 6.39999 15.08C6.61999 15.3 6.96999 15.27 7.15999 15.03C8.22999 13.6 8.21999 11.6 7.11999 10.18L14.74 2.56005C15.23 2.07005 16.02 2.07005 16.51 2.56005C17 3.05005 17 3.84005 16.51 4.33005L11.38 9.46005C11.18 9.66005 11.18 9.97005 11.38 10.17C11.58 10.37 11.89 10.37 12.09 10.17L18.63 3.63005C19.12 3.14005 19.91 3.14005 20.4 3.63005C20.89 4.12005 20.89 4.91005 20.4 5.40005L13.86 11.94C13.66 12.14 13.66 12.45 13.86 12.65C14.06 12.85 14.37 12.85 14.57 12.65L20.05 7.17005C20.54 6.68005 21.33 6.68005 21.82 7.17005C22.31 7.66005 22.31 8.45005 21.82 8.94005L15.63 15.13C15.43 15.33 15.43 15.64 15.63 15.84C15.83 16.04 16.14 16.04 16.34 15.84L20.41 11.77C20.9 11.28 21.69 11.28 22.18 11.77C22.67 12.26 22.67 13.05 22.18 13.54L15.11 20.6101C11.89 23.8301 6.65999 23.8301 3.43999 20.6101C0.219994 17.3901 0.219994 12.16 3.43999 8.94005L8.03999 4.34005C8.52999 3.85005 9.31999 3.85005 9.80999 4.34005C10.3 4.83005 10.3 5.62005 9.80999 6.11005L6.06999 9.80005ZM6.99999 1.80005C6.99999 1.39005 6.65999 1.05005 6.24999 1.05005C6.20999 1.05005 6.17999 1.05005 6.13999 1.06005C3.50999 1.44005 1.43999 3.52005 1.05999 6.14005C1.05999 6.17005 1.04999 6.21005 1.04999 6.25005C1.04999 6.66005 1.38999 7.00005 1.79999 7.00005C2.17999 7.00005 2.48999 6.72005 2.53999 6.36005C2.81999 4.39005 4.37999 2.83005 6.34999 2.55005C6.71999 2.49005 6.99999 2.18005 6.99999 1.80005ZM17 22.2001C17 22.6101 17.34 22.9501 17.75 22.9501C17.79 22.9501 17.82 22.9501 17.86 22.9401C20.49 22.5601 22.56 20.4801 22.94 17.8601C22.94 17.8301 22.95 17.79 22.95 17.75C22.95 17.34 22.61 17 22.2 17C21.82 17 21.51 17.28 21.46 17.64C21.18 19.61 19.62 21.1701 17.65 21.4501C17.28 21.5101 17 21.8201 17 22.2001Z" fill="url(#paint0_linear_13_65)"/>
</g>
<defs>
<linearGradient id="paint0_linear_13_65" x1="11.9875" y1="1.05005" x2="11.9875" y2="23.025" gradientUnits="userSpaceOnUse">
<stop stop-color="#EED18D"/>
<stop offset="1" stop-color="#DBBD76"/>
</linearGradient>
<clipPath id="clip0_13_65">
<rect width="24" height="24" fill="white"/>
</clipPath>
</defs>
</svg>
