<svg width="309" height="34" viewBox="0 0 309 34" fill="none" xmlns="http://www.w3.org/2000/svg">
<path d="M16.3438 33L16.2031 30.6562L18.6406 30.1875C18.4531 29.8438 18.25 29.5312 18.0312 29.25C17.8438 28.9375 17.5312 28.5 17.0938 27.9375L11.2812 20.8594H9.45312V18.6562L11.4219 18.2812L21.0781 8.34375L18.0781 7.82812L18.2188 5.48438H28.8125L28.9531 7.92188L25.8594 8.39062L15.5469 17.625L15.4531 15.6094L24.4531 26.3906C25.2031 27.2344 25.7969 27.9219 26.2344 28.4531C26.6719 28.9531 27.0156 29.3438 27.2656 29.625C27.5156 29.875 27.7188 30.0781 27.875 30.2344L30.2656 30.6094V33H16.3438ZM0.921875 33L0.78125 30.6562L3.78125 29.9062C3.84375 29.7188 3.89062 28.9688 3.92188 27.6562C3.95312 26.3125 3.96875 24.6562 3.96875 22.6875V15.7969C3.96875 14.5156 3.95312 13.3594 3.92188 12.3281C3.89062 11.2656 3.84375 10.4062 3.78125 9.75C3.75 9.09375 3.70312 8.70312 3.64062 8.57812L0.6875 7.82812L0.828125 5.48438H13.4375L13.5781 7.82812L10.5781 8.57812C10.5156 8.70312 10.4531 9.10938 10.3906 9.79688C10.3594 10.4531 10.3281 11.3125 10.2969 12.375C10.2969 13.4062 10.2969 14.5469 10.2969 15.7969V22.6875C10.2969 24.6562 10.3125 26.3125 10.3438 27.6562C10.4062 28.9688 10.4531 29.7188 10.4844 29.9062L12.9219 30.6562L12.7812 33H0.921875Z" fill="#141414"/>
<path d="M38 33.375C36.5625 33.375 35.3125 33.0625 34.25 32.4375C33.2188 31.8125 32.4219 31.0625 31.8594 30.1875C31.3281 29.3125 31.0625 28.4844 31.0625 27.7031C31.0625 26.5781 31.4062 25.6406 32.0938 24.8906C32.8125 24.1094 33.9062 23.5 35.375 23.0625L42.7344 20.9062V19.2188C42.7344 18.5625 42.5156 17.9531 42.0781 17.3906C41.6719 16.7969 41.125 16.3125 40.4375 15.9375C39.75 15.5625 39.0156 15.375 38.2344 15.375C37.7344 15.375 37.375 15.5 37.1562 15.75C36.9688 15.9688 36.8438 16.4219 36.7812 17.1094L36.5469 19.9688C34.9844 20.2812 33.7031 20.2344 32.7031 19.8281C31.7344 19.3906 31.25 18.6875 31.25 17.7188C31.25 17.125 31.5625 16.5156 32.1875 15.8906C32.8125 15.2656 33.5781 14.6875 34.4844 14.1562C35.4219 13.5938 36.375 13.125 37.3438 12.75C38.3125 12.3438 39.1562 12.1094 39.875 12.0469C42.6562 12.0469 44.8594 12.6875 46.4844 13.9688C48.1094 15.2188 48.9375 16.9062 48.9688 19.0312L48.8281 25.5469C48.8281 26.4219 48.8438 27.1094 48.875 27.6094C48.9375 28.1094 49.0312 28.5156 49.1562 28.8281L52.25 29.3906V31.3594L49.2031 32.6719C48.6406 32.8906 48.125 33.0625 47.6562 33.1875C47.1875 33.3125 46.7344 33.375 46.2969 33.375C45.0781 33.375 44.2188 32.75 43.7188 31.5L42.9219 29.3438L43.9062 29.5781C42.9375 30.7656 41.9375 31.7031 40.9062 32.3906C39.9062 33.0469 38.9375 33.375 38 33.375ZM40.3906 29.1562C40.8281 29.1562 41.25 29.0781 41.6562 28.9219C42.0625 28.7344 42.4375 28.4688 42.7812 28.125V23.5312L39.5938 24.1406C38.8125 24.2344 38.25 24.4688 37.9062 24.8438C37.5938 25.2188 37.4375 25.7188 37.4375 26.3438C37.4375 27.0625 37.7188 27.7188 38.2812 28.3125C38.875 28.875 39.5781 29.1562 40.3906 29.1562Z" fill="#141414"/>
<path d="M53.5156 33L53.375 30.8438L56.2812 30.0469C56.3125 29.9219 56.3438 29.6406 56.375 29.2031C56.4062 28.7344 56.4375 28.1719 56.4688 27.5156C56.5 26.8281 56.5156 26.1094 56.5156 25.3594L56.5625 21.8438C56.5625 20.9062 56.5312 20.0781 56.4688 19.3594C56.4062 18.6094 56.2969 17.8281 56.1406 17.0156L53.1406 16.3594V14.25L61.25 12.1406L62.4688 12.9375L62.2812 16.6406L62.4219 16.6875C63.3281 14.9375 64.2344 13.75 65.1406 13.125C66.0781 12.5 67.0312 12.1875 68 12.1875C68.8438 12.1875 69.5781 12.4219 70.2031 12.8906C70.8594 13.3594 71.1875 14.0938 71.1875 15.0938C71.1875 16.0938 70.8438 16.875 70.1562 17.4375C69.4688 18 68.6719 18.2812 67.7656 18.2812C67.0156 18.2812 66.3438 18.1562 65.75 17.9062C65.1562 17.625 64.5 17.1406 63.7812 16.4531L65.0938 16.5938C64.625 16.9375 64.1719 17.375 63.7344 17.9062C63.2969 18.4375 62.9219 19.0469 62.6094 19.7344L62.6562 23.4375C62.6875 24.5938 62.7031 25.6406 62.7031 26.5781C62.7344 27.4844 62.7656 28.25 62.7969 28.875C62.8281 29.4688 62.8594 29.8594 62.8906 30.0469L66.9688 30.75L66.8281 33H53.5156Z" fill="#141414"/>
<path d="M72.5 33L72.3594 30.7969L75.5 30.0469C75.5312 29.9219 75.5625 29.6406 75.5938 29.2031C75.625 28.7344 75.6562 28.1719 75.6875 27.5156C75.7188 26.8594 75.7344 26.1406 75.7344 25.3594L75.7812 21.8438C75.7812 20.9062 75.75 20.0625 75.6875 19.3125C75.625 18.5625 75.5156 17.7969 75.3594 17.0156L72.2188 16.3594V14.25L80.8438 12.1406L82.1094 12.9375C82.0156 13.9375 81.9375 14.9531 81.875 15.9844C81.8438 16.9844 81.8281 18.125 81.8281 19.4062V25.3125C81.8281 26.3438 81.8438 27.3281 81.875 28.2656C81.9375 29.2031 82 29.7969 82.0625 30.0469L85.2031 30.7969L85.0625 33H72.5ZM78.8281 8.29688C77.5781 8.29688 76.5938 7.92188 75.875 7.17188C75.1562 6.39062 74.7969 5.5 74.7969 4.5C74.7969 3.5 75.1562 2.625 75.875 1.875C76.5938 1.09375 77.5781 0.703125 78.8281 0.703125C80.0781 0.703125 81.0469 1.09375 81.7344 1.875C82.4219 2.625 82.7656 3.5 82.7656 4.5C82.7656 5.5 82.4219 6.39062 81.7344 7.17188C81.0469 7.92188 80.0781 8.29688 78.8281 8.29688Z" fill="#141414"/>
<path d="M86.6094 33L86.4688 30.8438L89.375 30.0469C89.4062 29.9219 89.4375 29.6406 89.4688 29.2031C89.5 28.7656 89.5312 28.2188 89.5625 27.5625C89.5938 26.875 89.6094 26.1406 89.6094 25.3594L89.6562 21.7969C89.6562 20.8281 89.625 19.9844 89.5625 19.2656C89.5 18.5469 89.3906 17.7969 89.2344 17.0156L86.2344 16.3594V14.25L94.4844 12.1406L95.75 12.9375L95.4688 15.7031L95.6094 15.75C96.5781 14.5 97.6406 13.5781 98.7969 12.9844C99.9844 12.3594 101.234 12.0469 102.547 12.0469C103.891 12.0469 105.078 12.375 106.109 13.0312C107.172 13.6875 108.016 14.6562 108.641 15.9375C109.266 17.1875 109.578 18.7031 109.578 20.4844V25.3125C109.578 26.375 109.594 27.375 109.625 28.3125C109.656 29.2188 109.719 29.7969 109.812 30.0469L112.719 30.8438L112.578 33H100.812L100.672 30.8438L103.344 30.0469C103.406 29.7656 103.453 29.375 103.484 28.875C103.516 28.3438 103.531 27.7656 103.531 27.1406C103.562 26.5156 103.578 25.9219 103.578 25.3594V21.4219C103.578 20.2344 103.391 19.2812 103.016 18.5625C102.672 17.8125 102.203 17.2656 101.609 16.9219C101.047 16.5781 100.391 16.4062 99.6406 16.4062C98.8594 16.4062 98.125 16.5781 97.4375 16.9219C96.7812 17.2656 96.1875 17.7656 95.6562 18.4219V25.3125C95.6562 26.375 95.6719 27.375 95.7031 28.3125C95.7656 29.2188 95.8281 29.7969 95.8906 30.0469L98.75 30.8438L98.6094 33H86.6094Z" fill="#141414"/>
<path d="M122.094 33.375C120.656 33.375 119.406 33.0625 118.344 32.4375C117.312 31.8125 116.516 31.0625 115.953 30.1875C115.422 29.3125 115.156 28.4844 115.156 27.7031C115.156 26.5781 115.5 25.6406 116.188 24.8906C116.906 24.1094 118 23.5 119.469 23.0625L126.828 20.9062V19.2188C126.828 18.5625 126.609 17.9531 126.172 17.3906C125.766 16.7969 125.219 16.3125 124.531 15.9375C123.844 15.5625 123.109 15.375 122.328 15.375C121.828 15.375 121.469 15.5 121.25 15.75C121.062 15.9688 120.938 16.4219 120.875 17.1094L120.641 19.9688C119.078 20.2812 117.797 20.2344 116.797 19.8281C115.828 19.3906 115.344 18.6875 115.344 17.7188C115.344 17.125 115.656 16.5156 116.281 15.8906C116.906 15.2656 117.672 14.6875 118.578 14.1562C119.516 13.5938 120.469 13.125 121.438 12.75C122.406 12.3438 123.25 12.1094 123.969 12.0469C126.75 12.0469 128.953 12.6875 130.578 13.9688C132.203 15.2188 133.031 16.9062 133.062 19.0312L132.922 25.5469C132.922 26.4219 132.938 27.1094 132.969 27.6094C133.031 28.1094 133.125 28.5156 133.25 28.8281L136.344 29.3906V31.3594L133.297 32.6719C132.734 32.8906 132.219 33.0625 131.75 33.1875C131.281 33.3125 130.828 33.375 130.391 33.375C129.172 33.375 128.312 32.75 127.812 31.5L127.016 29.3438L128 29.5781C127.031 30.7656 126.031 31.7031 125 32.3906C124 33.0469 123.031 33.375 122.094 33.375ZM124.484 29.1562C124.922 29.1562 125.344 29.0781 125.75 28.9219C126.156 28.7344 126.531 28.4688 126.875 28.125V23.5312L123.688 24.1406C122.906 24.2344 122.344 24.4688 122 24.8438C121.688 25.2188 121.531 25.7188 121.531 26.3438C121.531 27.0625 121.812 27.7188 122.375 28.3125C122.969 28.875 123.672 29.1562 124.484 29.1562Z" fill="#141414"/>
<path d="M148.156 5.48438H157.953L167.75 26.2969H166.438L175.25 5.48438H185.094L185.234 7.82812L182.234 8.53125C182.203 8.9375 182.203 9.64062 182.234 10.6406C182.266 11.6094 182.297 12.875 182.328 14.4375L182.656 22.6406C182.719 23.9531 182.766 25.125 182.797 26.1562C182.859 27.1875 182.922 28.0312 182.984 28.6875C183.047 29.3438 183.094 29.75 183.125 29.9062L186.078 30.6562L185.938 33H173.234L173.094 30.6562L176.094 29.9062C176.125 29.7812 176.141 29.4219 176.141 28.8281C176.172 28.2031 176.188 27.375 176.188 26.3438C176.188 25.3125 176.172 24.0938 176.141 22.6875L176 6.84375H178.156L167 33.1406H164.047L151.578 6.84375H154.438L154.484 22.9688C154.484 25.375 154.5 27.0938 154.531 28.125C154.562 29.125 154.594 29.7188 154.625 29.9062L157.906 30.6562L157.766 33H147.5L147.359 30.6562L150.641 29.9062C150.672 29.7188 150.688 29.2969 150.688 28.6406C150.719 27.9531 150.75 27.1406 150.781 26.2031C150.812 25.2656 150.828 24.2969 150.828 23.2969L150.969 14.5312C151 12.875 151 11.5625 150.969 10.5938C150.969 9.625 150.969 8.95312 150.969 8.57812L148.016 7.82812L148.156 5.48438Z" fill="#141414"/>
<path d="M200.328 33.375C198.141 33.375 196.219 32.9375 194.562 32.0625C192.906 31.1562 191.609 29.9219 190.672 28.3594C189.734 26.7656 189.266 24.9531 189.266 22.9219C189.266 20.6094 189.797 18.6406 190.859 17.0156C191.922 15.3906 193.312 14.1562 195.031 13.3125C196.75 12.4688 198.578 12.0469 200.516 12.0469C202.578 12.0469 204.391 12.4844 205.953 13.3594C207.547 14.2344 208.781 15.4688 209.656 17.0625C210.562 18.625 211.016 20.4219 211.016 22.4531C211.016 24.5156 210.531 26.375 209.562 28.0312C208.625 29.6562 207.344 30.9531 205.719 31.9219C204.094 32.8906 202.297 33.375 200.328 33.375ZM200.797 30.375C201.578 30.375 202.234 30.125 202.766 29.625C203.328 29.125 203.75 28.3906 204.031 27.4219C204.344 26.4531 204.5 25.2969 204.5 23.9531C204.5 21.2656 204.062 19.0781 203.188 17.3906C202.344 15.7031 201.203 14.8594 199.766 14.8594C198.578 14.8594 197.641 15.4688 196.953 16.6875C196.266 17.875 195.922 19.5 195.922 21.5625C195.922 23.2188 196.125 24.7188 196.531 26.0625C196.969 27.4062 197.547 28.4688 198.266 29.25C199.016 30 199.859 30.375 200.797 30.375Z" fill="#141414"/>
<path d="M213.594 33L213.453 30.8438L216.359 30.0469C216.391 29.9219 216.422 29.6406 216.453 29.2031C216.484 28.7344 216.516 28.1719 216.547 27.5156C216.578 26.8281 216.594 26.1094 216.594 25.3594L216.641 21.8438C216.641 20.9062 216.609 20.0781 216.547 19.3594C216.484 18.6094 216.375 17.8281 216.219 17.0156L213.219 16.3594V14.25L221.328 12.1406L222.547 12.9375L222.359 16.6406L222.5 16.6875C223.406 14.9375 224.312 13.75 225.219 13.125C226.156 12.5 227.109 12.1875 228.078 12.1875C228.922 12.1875 229.656 12.4219 230.281 12.8906C230.938 13.3594 231.266 14.0938 231.266 15.0938C231.266 16.0938 230.922 16.875 230.234 17.4375C229.547 18 228.75 18.2812 227.844 18.2812C227.094 18.2812 226.422 18.1562 225.828 17.9062C225.234 17.625 224.578 17.1406 223.859 16.4531L225.172 16.5938C224.703 16.9375 224.25 17.375 223.812 17.9062C223.375 18.4375 223 19.0469 222.688 19.7344L222.734 23.4375C222.766 24.5938 222.781 25.6406 222.781 26.5781C222.812 27.4844 222.844 28.25 222.875 28.875C222.906 29.4688 222.938 29.8594 222.969 30.0469L227.047 30.75L226.906 33H213.594Z" fill="#141414"/>
<path d="M242.703 33.375C240.672 33.375 238.859 32.9219 237.266 32.0156C235.703 31.1094 234.469 29.875 233.562 28.3125C232.688 26.75 232.25 24.9844 232.25 23.0156C232.25 20.8281 232.75 18.9219 233.75 17.2969C234.75 15.6406 236.047 14.3438 237.641 13.4062C239.266 12.4688 241 12.0156 242.844 12.0469C245.594 12.0469 247.719 12.9062 249.219 14.625C250.719 16.3125 251.469 18.5156 251.469 21.2344V22.3594H237.688V19.9219H246.875L246.172 21.0469V19.4531C246.172 17.9844 245.844 16.8125 245.188 15.9375C244.531 15.0625 243.625 14.625 242.469 14.625C241.688 14.625 240.984 14.8438 240.359 15.2812C239.734 15.7188 239.234 16.3906 238.859 17.2969C238.516 18.1719 238.344 19.2812 238.344 20.625V21.6094C238.344 23.7969 238.922 25.5625 240.078 26.9062C241.266 28.25 242.844 28.9219 244.812 28.9219C245.875 28.9219 246.844 28.7344 247.719 28.3594C248.594 27.9531 249.438 27.2812 250.25 26.3438L251.703 27.6562C250.828 29.5312 249.594 30.9531 248 31.9219C246.406 32.8906 244.641 33.375 242.703 33.375Z" fill="#141414"/>
<path d="M253.625 33L253.484 30.7969L256.625 30.0469C256.656 29.9219 256.688 29.6406 256.719 29.2031C256.75 28.7344 256.781 28.1719 256.812 27.5156C256.844 26.8594 256.859 26.1406 256.859 25.3594L256.906 21.8438C256.906 20.9062 256.875 20.0625 256.812 19.3125C256.75 18.5625 256.641 17.7969 256.484 17.0156L253.344 16.3594V14.25L261.969 12.1406L263.234 12.9375C263.141 13.9375 263.062 14.9531 263 15.9844C262.969 16.9844 262.953 18.125 262.953 19.4062V25.3125C262.953 26.3438 262.969 27.3281 263 28.2656C263.062 29.2031 263.125 29.7969 263.188 30.0469L266.328 30.7969L266.188 33H253.625ZM259.953 8.29688C258.703 8.29688 257.719 7.92188 257 7.17188C256.281 6.39062 255.922 5.5 255.922 4.5C255.922 3.5 256.281 2.625 257 1.875C257.719 1.09375 258.703 0.703125 259.953 0.703125C261.203 0.703125 262.172 1.09375 262.859 1.875C263.547 2.625 263.891 3.5 263.891 4.5C263.891 5.5 263.547 6.39062 262.859 7.17188C262.172 7.92188 261.203 8.29688 259.953 8.29688Z" fill="#141414"/>
<path d="M267.781 33L267.641 30.8438L270.547 30.0469C270.578 29.9219 270.609 29.6406 270.641 29.2031C270.672 28.7344 270.703 28.1719 270.734 27.5156C270.766 26.8281 270.781 26.1094 270.781 25.3594L270.828 21.8438C270.828 20.9062 270.797 20.0781 270.734 19.3594C270.672 18.6094 270.562 17.8281 270.406 17.0156L267.406 16.3594V14.25L275.516 12.1406L276.734 12.9375L276.547 16.6406L276.688 16.6875C277.594 14.9375 278.5 13.75 279.406 13.125C280.344 12.5 281.297 12.1875 282.266 12.1875C283.109 12.1875 283.844 12.4219 284.469 12.8906C285.125 13.3594 285.453 14.0938 285.453 15.0938C285.453 16.0938 285.109 16.875 284.422 17.4375C283.734 18 282.938 18.2812 282.031 18.2812C281.281 18.2812 280.609 18.1562 280.016 17.9062C279.422 17.625 278.766 17.1406 278.047 16.4531L279.359 16.5938C278.891 16.9375 278.438 17.375 278 17.9062C277.562 18.4375 277.188 19.0469 276.875 19.7344L276.922 23.4375C276.953 24.5938 276.969 25.6406 276.969 26.5781C277 27.4844 277.031 28.25 277.062 28.875C277.094 29.4688 277.125 29.8594 277.156 30.0469L281.234 30.75L281.094 33H267.781Z" fill="#141414"/>
<path d="M293.938 33.375C292.5 33.375 291.25 33.0625 290.188 32.4375C289.156 31.8125 288.359 31.0625 287.797 30.1875C287.266 29.3125 287 28.4844 287 27.7031C287 26.5781 287.344 25.6406 288.031 24.8906C288.75 24.1094 289.844 23.5 291.312 23.0625L298.672 20.9062V19.2188C298.672 18.5625 298.453 17.9531 298.016 17.3906C297.609 16.7969 297.062 16.3125 296.375 15.9375C295.688 15.5625 294.953 15.375 294.172 15.375C293.672 15.375 293.312 15.5 293.094 15.75C292.906 15.9688 292.781 16.4219 292.719 17.1094L292.484 19.9688C290.922 20.2812 289.641 20.2344 288.641 19.8281C287.672 19.3906 287.188 18.6875 287.188 17.7188C287.188 17.125 287.5 16.5156 288.125 15.8906C288.75 15.2656 289.516 14.6875 290.422 14.1562C291.359 13.5938 292.312 13.125 293.281 12.75C294.25 12.3438 295.094 12.1094 295.812 12.0469C298.594 12.0469 300.797 12.6875 302.422 13.9688C304.047 15.2188 304.875 16.9062 304.906 19.0312L304.766 25.5469C304.766 26.4219 304.781 27.1094 304.812 27.6094C304.875 28.1094 304.969 28.5156 305.094 28.8281L308.188 29.3906V31.3594L305.141 32.6719C304.578 32.8906 304.062 33.0625 303.594 33.1875C303.125 33.3125 302.672 33.375 302.234 33.375C301.016 33.375 300.156 32.75 299.656 31.5L298.859 29.3438L299.844 29.5781C298.875 30.7656 297.875 31.7031 296.844 32.3906C295.844 33.0469 294.875 33.375 293.938 33.375ZM296.328 29.1562C296.766 29.1562 297.188 29.0781 297.594 28.9219C298 28.7344 298.375 28.4688 298.719 28.125V23.5312L295.531 24.1406C294.75 24.2344 294.188 24.4688 293.844 24.8438C293.531 25.2188 293.375 25.7188 293.375 26.3438C293.375 27.0625 293.656 27.7188 294.219 28.3125C294.812 28.875 295.516 29.1562 296.328 29.1562Z" fill="#141414"/>
</svg>
